<svg width="40" height="40" viewBox="0 0 40 40" fill="none" xmlns="http://www.w3.org/2000/svg">
<g clip-path="url(#clip0_22_124)">
<path fill-rule="evenodd" clip-rule="evenodd" d="M39.2 20.4547C39.2 19.0365 39.0727 17.6729 38.8364 16.3638H20V24.1001H30.7636C30.3 26.6001 28.8909 28.7183 26.7727 30.1365V35.1547H33.2364C37.0182 31.6729 39.2 26.5456 39.2 20.4547Z" fill="white"/>
<path fill-rule="evenodd" clip-rule="evenodd" d="M20 39.9998C25.4 39.9998 29.9273 38.2089 33.2364 35.1544L26.7728 30.1362C24.9819 31.3362 22.691 32.0453 20 32.0453C14.791 32.0453 10.3819 28.5271 8.80914 23.7998H2.12732V28.9816C5.41823 35.518 12.1819 39.9998 20 39.9998Z" fill="white"/>
<path fill-rule="evenodd" clip-rule="evenodd" d="M8.80909 23.7999C8.40909 22.5999 8.18182 21.3181 8.18182 19.9999C8.18182 18.6817 8.40909 17.3999 8.80909 16.1999V11.0181H2.12727C0.772727 13.7181 0 16.7726 0 19.9999C0 23.2272 0.772727 26.2817 2.12727 28.9817L8.80909 23.7999Z" fill="white"/>
<path fill-rule="evenodd" clip-rule="evenodd" d="M20 7.95455C22.9364 7.95455 25.5728 8.96364 27.6455 10.9455L33.3819 5.20909C29.9182 1.98182 25.391 0 20 0C12.1819 0 5.41823 4.48182 2.12732 11.0182L8.80914 16.2C10.3819 11.4727 14.791 7.95455 20 7.95455Z" fill="white"/>
</g>
<defs>
<clipPath id="clip0_22_124">
<rect width="40" height="40" rx="6" fill="white"/>
</clipPath>
</defs>
</svg>
