<svg width="40" height="40" viewBox="0 0 40 40" fill="none" xmlns="http://www.w3.org/2000/svg">
<path d="M33.7359 8.6426C31.2096 7.48341 28.5005 6.62938 25.6679 6.14024C25.6163 6.1308 25.5648 6.15439 25.5382 6.20157C25.1898 6.82125 24.8039 7.62968 24.5336 8.2651C21.4871 7.809 18.4561 7.809 15.472 8.2651C15.2017 7.61556 14.8018 6.82125 14.4518 6.20157C14.4252 6.15596 14.3737 6.13237 14.3221 6.14024C11.4911 6.62781 8.78201 7.48185 6.25413 8.6426C6.23224 8.65204 6.21348 8.66778 6.20103 8.68821C1.06244 16.3652 -0.345241 23.8534 0.345319 31.2488C0.348443 31.285 0.368753 31.3196 0.396876 31.3416C3.78718 33.8314 7.07126 35.3429 10.2944 36.3448C10.3459 36.3605 10.4006 36.3416 10.4334 36.2992C11.1959 35.258 11.8755 34.1602 12.4582 33.0057C12.4926 32.9381 12.4598 32.8578 12.3895 32.8311C11.3115 32.4222 10.285 31.9236 9.29757 31.3574C9.21947 31.3118 9.21322 31.2001 9.28507 31.1466C9.49286 30.9909 9.7007 30.8289 9.89911 30.6653C9.935 30.6354 9.98503 30.6291 10.0272 30.648C16.5141 33.6096 23.5368 33.6096 29.9472 30.648C29.9894 30.6276 30.0394 30.6339 30.0768 30.6637C30.2753 30.8273 30.4831 30.9909 30.6924 31.1466C30.7643 31.2001 30.7596 31.3118 30.6815 31.3574C29.6941 31.9346 28.6676 32.4222 27.588 32.8295C27.5177 32.8563 27.4865 32.9381 27.5209 33.0057C28.1161 34.1585 28.7957 35.2564 29.5441 36.2976C29.5753 36.3416 29.6316 36.3605 29.6831 36.3448C32.9219 35.3429 36.2059 33.8314 39.5962 31.3416C39.6259 31.3196 39.6447 31.2866 39.6478 31.2504C40.4743 22.7005 38.2635 15.2736 33.7874 8.68977C33.7765 8.66778 33.7578 8.65204 33.7359 8.6426ZM13.4269 26.7458C11.4739 26.7458 9.86472 24.9528 9.86472 22.7508C9.86472 20.5489 11.4427 18.7559 13.4269 18.7559C15.4267 18.7559 17.0203 20.5646 16.989 22.7508C16.989 24.9528 15.411 26.7458 13.4269 26.7458ZM26.5975 26.7458C24.6446 26.7458 23.0354 24.9528 23.0354 22.7508C23.0354 20.5489 24.6133 18.7559 26.5975 18.7559C28.5973 18.7559 30.1909 20.5646 30.1597 22.7508C30.1597 24.9528 28.5973 26.7458 26.5975 26.7458Z" fill="white"/>
</svg>
