<svg width="40" height="40" viewBox="0 0 40 40" fill="none" xmlns="http://www.w3.org/2000/svg">
<path fill-rule="evenodd" clip-rule="evenodd" d="M3.39512 18.8222C13.7309 14.3191 20.6231 11.3503 24.0716 9.91596C33.9178 5.8206 35.9637 5.10919 37.2973 5.0857C37.5906 5.08053 38.2463 5.15322 38.6711 5.49791C39.0298 5.78896 39.1285 6.18212 39.1757 6.45807C39.223 6.73402 39.2818 7.36263 39.235 7.85381C38.7015 13.46 36.3927 27.0649 35.2182 33.344C34.7212 36.0009 33.7425 36.8918 32.7951 36.979C30.7362 37.1684 29.1728 35.6183 27.1786 34.3111C24.0581 32.2656 22.2952 30.9922 19.2662 28.9962C15.7657 26.6894 18.035 25.4215 20.0299 23.3495C20.552 22.8073 29.6237 14.5559 29.7992 13.8074C29.8212 13.7137 29.8416 13.3648 29.6343 13.1805C29.427 12.9963 29.121 13.0593 28.9002 13.1094C28.5872 13.1804 23.6022 16.4753 13.9451 22.9941C12.5302 23.9657 11.2485 24.4391 10.1002 24.4143C8.83428 24.387 6.39916 23.6986 4.58889 23.1101C2.36853 22.3884 0.603831 22.0068 0.757497 20.781C0.837536 20.1426 1.71674 19.4896 3.39512 18.8222Z" fill="white"/>
</svg>
