<svg width="40" height="40" viewBox="0 0 40 40" fill="none" xmlns="http://www.w3.org/2000/svg">
<path d="M39.888 11.7534C39.792 9.6237 39.4479 8.16653 38.9598 6.89352C38.4477 5.58047 37.7676 4.45957 36.6554 3.35468C35.5432 2.2498 34.4309 1.55324 33.1187 1.04884C31.8464 0.552442 30.3901 0.216173 28.2617 0.120096C26.1253 0.0240192 25.4451 0 20.02 0C14.587 0 13.9068 0.0240192 11.7784 0.120096C9.64997 0.216173 8.19368 0.560448 6.92143 1.04884C5.60116 1.56125 4.48094 2.24179 3.37672 3.35468C2.2725 4.46757 1.57636 5.58047 1.07226 6.89352C0.58416 8.16653 0.240091 9.6237 0.144072 11.7534C0.0480526 13.8911 0.0240479 14.5717 0.0240479 20C0.0240479 25.4364 0.0480526 26.1169 0.144072 28.2466C0.240091 30.3763 0.58416 31.8335 1.07226 33.1065C1.58436 34.4195 2.2645 35.5404 3.37672 36.6453C4.48094 37.7582 5.60116 38.4468 6.91343 38.9512C8.18568 39.4476 9.64197 39.7838 11.7704 39.8799C13.9068 39.976 14.587 40 20.012 40C25.4451 40 26.1253 39.976 28.2537 39.8799C30.3821 39.7838 31.8384 39.4396 33.1107 38.9512C34.4229 38.4388 35.5432 37.7582 36.6474 36.6453C37.7516 35.5324 38.4477 34.4195 38.9518 33.1065C39.4479 31.8335 39.784 30.3763 39.88 28.2466C39.976 26.1089 40 25.4283 40 20C40 14.5717 39.984 13.8831 39.888 11.7534ZM36.2953 28.0865C36.2073 30.04 35.8792 31.1049 35.6072 31.8014C35.2471 32.7302 34.807 33.4027 34.1029 34.1073C33.3987 34.8119 32.7346 35.2362 31.7984 35.6125C31.0943 35.8847 30.0301 36.213 28.0857 36.301C25.9812 36.3971 25.3491 36.4211 20.004 36.4211C14.659 36.4211 14.0268 36.3971 11.9224 36.301C9.97004 36.213 8.90582 35.8847 8.20968 35.6125C7.2815 35.2522 6.60936 34.8119 5.90522 34.1073C5.20108 33.4027 4.777 32.7382 4.40092 31.8014C4.12887 31.0969 3.8008 30.032 3.71279 28.0865C3.61677 25.9808 3.59276 25.3483 3.59276 20C3.59276 14.6517 3.61677 14.0192 3.71279 11.9135C3.8008 9.95997 4.12887 8.89512 4.40092 8.19856C4.761 7.26982 5.20108 6.59728 5.90522 5.89271C6.60936 5.18815 7.2735 4.76381 8.20968 4.38751C8.91383 4.11529 9.97804 3.78703 11.9224 3.69896C14.0268 3.60288 14.659 3.57886 20.004 3.57886C25.3491 3.57886 25.9812 3.60288 28.0857 3.69896C30.0381 3.78703 31.1023 4.11529 31.7984 4.38751C32.7266 4.7478 33.3987 5.18815 34.1029 5.89271C34.807 6.59728 35.2311 7.26181 35.6072 8.19856C35.8792 8.90312 36.2073 9.96798 36.2953 11.9135C36.3913 14.0192 36.4153 14.6517 36.4153 20C36.4153 25.3483 36.3833 25.9808 36.2953 28.0865Z" fill="#F3C652"/>
<path d="M20.0042 9.71979C14.323 9.71979 9.7301 14.3235 9.7301 20C9.7301 25.6846 14.331 30.2802 20.0042 30.2802C25.6773 30.2802 30.2782 25.6685 30.2782 20C30.2782 14.3155 25.6853 9.71979 20.0042 9.71979ZM20.0042 26.6693C16.3234 26.6693 13.3388 23.683 13.3388 20C13.3388 16.3171 16.3234 13.3307 20.0042 13.3307C23.6849 13.3307 26.6695 16.3171 26.6695 20C26.6695 23.683 23.6849 26.6693 20.0042 26.6693Z" fill="#F3C652"/>
<path d="M30.6782 11.7214C32.0039 11.7214 33.0787 10.646 33.0787 9.31946C33.0787 7.99292 32.0039 6.91754 30.6782 6.91754C29.3524 6.91754 28.2777 7.99292 28.2777 9.31946C28.2777 10.646 29.3524 11.7214 30.6782 11.7214Z" fill="#F3C652"/>
<path d="M0 20C0 25.4364 0.0240048 26.1169 0.120024 28.2466C0.216043 30.3763 0.560112 31.8335 1.04821 33.1065C1.56031 34.4195 2.24045 35.5404 3.35267 36.6453C4.45689 37.7502 5.57712 38.4468 6.88938 38.9512C8.16163 39.4476 9.61792 39.7838 11.7464 39.8799C13.8828 39.976 14.5629 40 19.988 40C25.4211 40 26.1012 39.976 28.2296 39.8799C30.3581 39.7838 31.8144 39.4396 33.0866 38.9512C34.3989 38.4388 35.5191 37.7582 36.6233 36.6453C37.7276 35.5404 38.4237 34.4195 38.9278 33.1065C39.4239 31.8335 39.76 30.3763 39.856 28.2466C39.952 26.1089 39.976 25.4283 39.976 20C39.976 14.5637 39.952 13.8831 39.856 11.7534C39.76 9.6237 39.4159 8.16653 38.9278 6.89352C38.4157 5.58047 37.7355 4.45957 36.6233 3.35468C35.5271 2.24179 34.4069 1.55324 33.0946 1.04884C31.8224 0.552442 30.3661 0.216173 28.2376 0.120096C26.1012 0.0240192 25.4211 0 19.996 0C14.5629 0 13.8828 0.0240192 11.7544 0.120096C9.62593 0.216173 8.16963 0.560448 6.89738 1.04884C5.58512 1.56125 4.46489 2.24179 3.36067 3.35468C2.25645 4.46757 1.56031 5.58047 1.05621 6.89352C0.560112 8.16653 0.216043 9.6237 0.120024 11.7534C0.0240048 13.8831 0 14.5637 0 20ZM3.60872 20C3.60872 14.6597 3.63273 14.0192 3.72875 11.9135C3.81676 9.95997 4.14483 8.89512 4.41688 8.19856C4.77696 7.26982 5.21704 6.59728 5.92118 5.89271C6.62533 5.18815 7.28946 4.76381 8.22565 4.38751C8.92979 4.11529 9.994 3.78703 11.9384 3.69896C14.0428 3.60288 14.6749 3.57886 20.02 3.57886C25.3651 3.57886 25.9972 3.60288 28.1016 3.69896C30.054 3.78703 31.1182 4.11529 31.8144 4.38751C32.7425 4.7478 33.4147 5.18815 34.1188 5.89271C34.823 6.59728 35.2471 7.26181 35.6231 8.19856C35.8952 8.90312 36.2232 9.96798 36.3113 11.9135C36.4073 14.0192 36.4313 14.6517 36.4313 20C36.4313 25.3483 36.4073 25.9808 36.3113 28.0865C36.2232 30.04 35.8952 31.1049 35.6231 31.8014C35.2631 32.7302 34.823 33.4027 34.1188 34.1073C33.4147 34.8119 32.7506 35.2362 31.8144 35.6125C31.1102 35.8847 30.046 36.213 28.1016 36.301C25.9972 36.3971 25.3651 36.4211 20.02 36.4211C14.6749 36.4211 14.0428 36.3971 11.9384 36.301C9.986 36.213 8.92179 35.8847 8.22565 35.6125C7.29746 35.2522 6.62533 34.8119 5.92118 34.1073C5.21704 33.4027 4.79296 32.7382 4.41688 31.8014C4.14483 31.0969 3.81676 30.032 3.72875 28.0865C3.62473 25.9808 3.60872 25.3403 3.60872 20Z" fill="#F3C652"/>
</svg>
